HIERARCHY
ROOT Hips
{
	OFFSET 0.000000 0.000000 0.000000
	CHANNELS 6 Xposition Yposition Zposition Xrotation Yrotation Zrotation
	JOINT LeftUpLeg_virtual
	{
		OFFSET 0.000000 0.000000 0.000000
		CHANNELS 3 Xrotation Yrotation Zrotation
		JOINT LeftUpLeg
		{
			OFFSET 11.394100 -6.187798 -0.413800
			CHANNELS 3 Xrotation Yrotation Zrotation
			JOINT LeftLeg
			{
				OFFSET 0.430247 -32.302673 3.732800
				CHANNELS 3 Xrotation Yrotation Zrotation
				JOINT LeftFoot
				{
					OFFSET -0.430247 -48.264931 -6.423300
					CHANNELS 3 Xrotation Yrotation Zrotation
					JOINT LeftToeBase
					{
						OFFSET 4.230900 -16.068199 23.438400
						CHANNELS 3 Xrotation Yrotation Zrotation
						JOINT LeftToe_End
						{
							OFFSET 4.510700 0.695400 19.974600
							CHANNELS 3 Xrotation Yrotation Zrotation
							End Site
							{
								OFFSET 0 0 0
							}
						}
					}
				}
			}
		}
	}
	JOINT RightUpLeg_virtual
	{
		OFFSET 0.000000 0.000000 0.000000
		CHANNELS 3 Xrotation Yrotation Zrotation
		JOINT RightUpLeg
		{
			OFFSET -11.333700 -6.187798 -0.413800
			CHANNELS 3 Xrotation Yrotation Zrotation
			JOINT RightLeg
			{
				OFFSET -0.430392 -32.302628 3.733000
				CHANNELS 3 Xrotation Yrotation Zrotation
				JOINT RightFoot
				{
					OFFSET 0.430392 -48.264973 -6.423500
					CHANNELS 3 Xrotation Yrotation Zrotation
					JOINT RightToeBase
					{
						OFFSET -4.230900 -16.068199 23.438400
						CHANNELS 3 Xrotation Yrotation Zrotation
						JOINT RightToe_End
						{
							OFFSET -4.510700 0.695400 19.974600
							CHANNELS 3 Xrotation Yrotation Zrotation
							End Site
							{
								OFFSET 0 0 0
							}
						}
					}
				}
			}
		}
	}
	JOINT Spine_virtual
	{
		OFFSET 0.000000 0.000000 0.000000
		CHANNELS 3 Xrotation Yrotation Zrotation
		JOINT Spine
		{
			OFFSET -0.002400 12.777504 0.315300
			CHANNELS 3 Xrotation Yrotation Zrotation
			JOINT Spine1
			{
				OFFSET -0.002067 5.816869 0.032633
				CHANNELS 3 Xrotation Yrotation Zrotation
				JOINT Spine1_split
				{
					OFFSET -0.002067 5.816869 0.032633
					CHANNELS 3 Xrotation Yrotation Zrotation
					JOINT Spine2
					{
						OFFSET -0.002067 5.816869 0.032633
						CHANNELS 3 Xrotation Yrotation Zrotation
						JOINT Neck_virtual
						{
							OFFSET 0.000000 0.000000 0.000000
							CHANNELS 3 Xrotation Yrotation Zrotation
							JOINT Neck
							{
								OFFSET -0.003700 21.199493 -0.826900
								CHANNELS 3 Xrotation Yrotation Zrotation
								JOINT Head
								{
									OFFSET 0.000000 20.442200 4.834800
									CHANNELS 3 Xrotation Yrotation Zrotation
									JOINT HeadTop_End
									{
										OFFSET 0.000000 34.668396 4.968400
										CHANNELS 3 Xrotation Yrotation Zrotation
										End Site
										{
											OFFSET 0 0 0
										}
									}
								}
							}
						}
						JOINT LeftShoulder_virtual
						{
							OFFSET 0.000000 0.000000 0.000000
							CHANNELS 3 Xrotation Yrotation Zrotation
							JOINT LeftShoulder
							{
								OFFSET 3.288150 8.794197 -1.372250
								CHANNELS 3 Xrotation Yrotation Zrotation
								JOINT LeftShoulder_split
								{
									OFFSET 3.288150 8.794197 -1.372250
									CHANNELS 3 Xrotation Yrotation Zrotation
									JOINT LeftArm
									{
										OFFSET 11.953299 -2.279007 -0.146200
										CHANNELS 3 Xrotation Yrotation Zrotation
										JOINT LeftForeArm
										{
											OFFSET 18.448900 0.000000 0.000000
											CHANNELS 3 Xrotation Yrotation Zrotation
											JOINT LeftHand
											{
												OFFSET 29.527798 0.000000 0.000000
												CHANNELS 3 Xrotation Yrotation Zrotation
												End Site
												{
													OFFSET 0 0 0
												}
											}
										}
									}
								}
							}
						}
						JOINT RightShoulder_virtual
						{
							OFFSET 0.000000 0.000000 0.000000
							CHANNELS 3 Xrotation Yrotation Zrotation
							JOINT RightShoulder
							{
								OFFSET -3.249400 8.794197 -1.372250
								CHANNELS 3 Xrotation Yrotation Zrotation
								JOINT RightShoulder_split
								{
									OFFSET -3.249400 8.794197 -1.372250
									CHANNELS 3 Xrotation Yrotation Zrotation
									JOINT RightArm
									{
										OFFSET -11.953299 -2.279007 -0.146200
										CHANNELS 3 Xrotation Yrotation Zrotation
										JOINT RightForeArm
										{
											OFFSET -18.448900 0.000000 0.000000
											CHANNELS 3 Xrotation Yrotation Zrotation
											JOINT RightHand
											{
												OFFSET -29.527802 0.000000 0.000000
												CHANNELS 3 Xrotation Yrotation Zrotation
												End Site
												{
													OFFSET 0 0 0
												}
											}
										}
									}
								}
							}
						}
					}
				}
			}
		}
	}
}
MOTION
Frames: 8
Frame Time: 0.03333333
-0.188532 94.284843 0.075371 0.000000 0.000000 0.000000 -6.091884 -43.084157 -4.028574 -30.528200 4.939453 14.030003 33.600593 -13.723013 -0.142483 -0.499452 0.502649 -8.886868 -2.319082 -3.216987 0.802954 0.000000 0.000000 0.000000 -6.091884 -43.084157 -4.028574 -6.240851 -12.866857 -16.842345 32.320940 -9.244053 -0.477171 -18.022383 -3.759903 17.730430 -1.784972 -0.356707 0.333185 0.000000 0.000000 0.000000 -6.091884 -43.084157 -4.028574 5.833544 4.695672 -1.240788 11.836539 9.038709 -3.084348 0.000000 0.000000 0.000000 0.000000 0.000000 0.000000 11.836537 9.038691 -3.084346 -4.303014 -1.272906 0.206303 -6.271936 20.437792 -0.377162 0.000000 0.000000 0.000000 11.836537 9.038691 -3.084346 1.392497 -0.696017 -7.877855 0.000000 0.000000 0.000000 -14.260090 2.394334 -63.277106 9.865057 -47.524910 5.927908 0.000000 0.000000 0.000000 11.836537 9.038691 -3.084346 1.410963 9.461533 9.792729 0.000000 0.000000 0.000000 1.220052 -24.270722 60.532900 -6.660698 41.858415 8.043846 0.000000 0.000000 0.000000 
0.318369 94.480171 -0.543510 0.000000 0.000000 0.000000 -6.199094 -43.369891 -4.140913 -30.203984 5.070101 14.296508 32.260199 -13.031424 -0.486900 0.499431 -0.153322 -8.942090 -2.202422 -2.954518 0.600550 0.000000 0.000000 0.000000 -6.199094 -43.369891 -4.140913 -7.302900 -13.363335 -16.950451 32.834864 -8.036673 -0.565041 -17.588932 -3.574963 17.122229 -1.552917 -0.401282 0.295867 0.000000 0.000000 0.000000 -6.199094 -43.369891 -4.140913 5.910707 4.658369 -1.268492 11.981814 8.966222 -3.057289 0.000000 0.000000 0.000000 0.000000 0.000000 0.000000 11.981820 8.966200 -3.057284 -4.631370 -1.213644 0.393662 -6.738247 20.342057 -0.503909 0.000000 0.000000 0.000000 11.981820 8.966200 -3.057284 1.424247 -0.917261 -7.638833 0.000000 0.000000 0.000000 -13.828636 2.336943 -63.082958 10.239115 -47.620789 6.058581 0.000000 0.000000 0.000000 11.981820 8.966200 -3.057284 1.548608 9.197633 9.728930 0.000000 0.000000 0.000000 -0.123835 -23.268387 59.659954 -6.921680 41.713410 8.099058 0.000000 0.000000 0.000000 
0.964167 95.043938 -1.937614 0.000000 0.000000 0.000000 -5.649923 -43.816678 -4.161089 -29.638633 5.385913 15.317232 28.778743 -11.416922 -1.047980 2.780812 -1.820266 -9.329191 -1.570858 -2.683649 0.438498 0.000000 0.000000 0.000000 -5.649923 -43.816678 -4.161089 -9.230003 -14.678234 -16.128961 32.875589 -6.336931 -1.128757 -16.554370 -3.088737 15.803741 -1.246396 -0.549743 -0.000084 0.000000 0.000000 0.000000 -5.649923 -43.816678 -4.161089 6.075351 4.562686 -1.275466 12.291221 8.793640 -2.923257 0.000000 0.000000 0.000000 0.000000 0.000000 0.000000 12.291218 8.793647 -2.923258 -5.600543 -0.771453 0.762562 -7.478254 20.278623 -0.915326 0.000000 0.000000 0.000000 12.291218 8.793647 -2.923258 1.559700 -0.881998 -6.930224 0.000000 0.000000 0.000000 -13.113716 2.571166 -63.632283 10.587737 -46.992139 6.307652 0.000000 0.000000 0.000000 12.291218 8.793647 -2.923258 1.892365 8.982953 9.354385 0.000000 0.000000 0.000000 -2.904477 -20.756047 58.240162 -6.773794 40.936892 8.076138 0.000000 0.000000 0.000000 
1.868505 95.666100 -4.232979 0.000000 0.000000 0.000000 -3.143456 -44.693223 -3.427778 -30.315173 5.592439 17.004459 23.850058 -8.604754 -1.295860 6.391598 -4.128662 -10.087751 -0.775934 -2.278175 0.178865 0.000000 0.000000 0.000000 -3.143456 -44.693223 -3.427778 -13.583174 -16.333395 -14.483169 33.478756 -4.704889 -1.642369 -14.892536 -2.181740 13.759536 -2.195939 -0.819803 -0.000416 0.000000 0.000000 0.000000 -3.143456 -44.693223 -3.427778 6.161813 4.410870 -1.355306 12.436825 8.542456 -2.825187 0.000000 0.000000 0.000000 0.000000 0.000000 0.000000 12.436821 8.542468 -2.825195 -8.635365 -0.013870 1.886928 -6.717748 20.541012 -1.709472 0.000000 0.000000 0.000000 12.436821 8.542468 -2.825195 1.771119 -0.000337 -5.528473 0.000000 0.000000 0.000000 -12.652764 3.419918 -65.556504 10.459391 -46.149464 6.937311 0.000000 0.000000 0.000000 12.436821 8.542468 -2.825195 2.360571 9.141300 8.789005 0.000000 0.000000 0.000000 -6.224298 -16.843477 56.255945 -6.050943 40.787656 8.249140 0.000000 0.000000 0.000000 
2.857236 95.586731 -7.297997 0.000000 0.000000 0.000000 0.004849 -45.469799 -2.066020 -32.442780 5.768478 18.422135 19.664080 -6.176597 -0.578348 10.190063 -6.792691 -11.235344 0.006131 -1.760592 -0.172965 0.000000 0.000000 0.000000 0.004849 -45.469799 -2.066020 -20.408028 -17.889471 -13.254805 36.962170 -0.242209 -1.299477 -14.503401 -0.832791 9.632761 -3.203619 -1.041832 -0.001286 0.000000 0.000000 0.000000 0.004849 -45.469799 -2.066020 6.575328 4.199858 -1.676818 13.241662 8.206897 -3.093096 0.000000 0.000000 0.000000 0.000000 0.000000 0.000000 13.241654 8.206907 -3.093097 -14.755111 0.426284 3.845977 -4.690772 20.494739 -2.064063 0.000000 0.000000 0.000000 13.241654 8.206907 -3.093097 1.992660 1.215093 -3.765832 0.000000 0.000000 0.000000 -14.362804 4.724950 -68.730609 8.308345 -45.005472 8.233585 0.000000 0.000000 0.000000 13.241654 8.206907 -3.093097 2.869186 10.136833 7.947072 0.000000 0.000000 0.000000 -9.208149 -13.910469 54.681736 -5.944543 45.337040 8.468004 0.000000 0.000000 0.000000 
3.598699 94.258614 -10.724827 0.000000 0.000000 0.000000 1.746412 -44.364497 -1.133395 -36.137715 5.532396 19.027375 18.585870 -6.426771 0.592669 12.935668 -9.649725 -12.624397 0.450239 -1.750474 -0.205347 0.000000 0.000000 0.000000 1.746412 -44.364497 -1.133395 -29.713129 -19.287655 -13.568553 46.272001 8.536654 -0.999773 -14.466964 1.465077 3.308584 -7.240099 -0.641239 -3.198251 0.000000 0.000000 0.000000 1.746412 -44.364497 -1.133395 7.490189 3.876140 -2.198783 15.050272 7.672923 -3.642612 0.000000 0.000000 0.000000 0.000000 0.000000 0.000000 15.050271 7.672937 -3.642618 -21.379848 0.319395 4.903299 -4.325397 18.935788 -0.750706 0.000000 0.000000 0.000000 15.050271 7.672937 -3.642618 2.274605 2.164884 -2.637892 0.000000 0.000000 0.000000 -19.319118 2.677739 -69.781775 5.241571 -42.488865 9.295754 0.000000 0.000000 0.000000 15.050271 7.672937 -3.642618 3.480497 11.533877 6.196978 0.000000 0.000000 0.000000 -12.807386 -12.946343 55.536043 -6.041716 52.591811 6.029732 0.000000 0.000000 0.000000 
3.849385 91.732292 -13.955669 0.000000 0.000000 0.000000 3.251381 -40.114681 -0.848857 -43.210321 4.173351 18.964674 21.466018 -9.184987 1.482079 14.774369 -12.435147 -13.396487 0.388246 -1.819704 -0.313956 0.000000 0.000000 0.000000 3.251381 -40.114681 -0.848857 -43.484994 -19.028832 -16.961100 62.198305 13.840037 -1.095280 -8.994426 2.267757 -0.838952 -13.606187 -1.355609 -0.521956 0.000000 0.000000 0.000000 3.251381 -40.114681 -0.848857 8.251634 3.484865 -2.469777 16.550353 7.021424 -3.819292 0.000000 0.000000 0.000000 0.000000 0.000000 0.000000 16.550353 7.021422 -3.819289 -24.130777 -0.016520 3.945023 -6.499119 15.550905 1.133557 0.000000 0.000000 0.000000 16.550353 7.021422 -3.819289 2.551238 1.952124 -2.461244 0.000000 0.000000 0.000000 -24.625958 -3.096989 -68.005625 2.936991 -40.285105 10.315326 0.000000 0.000000 0.000000 16.550353 7.021422 -3.819289 4.351266 11.873064 3.413793 0.000000 0.000000 0.000000 -15.922564 -11.485263 58.020299 -3.879423 57.341747 -0.467401 0.000000 0.000000 0.000000 
3.690398 88.416710 -15.562542 0.000000 0.000000 0.000000 6.315054 -36.128190 0.167372 -53.786835 1.175340 18.557173 29.321708 -10.691271 1.583815 15.043627 -14.571558 -12.927401 -0.141195 -1.503021 -0.335909 0.000000 0.000000 0.000000 6.315054 -36.128190 0.167372 -56.247277 -20.098894 -18.523442 76.873212 21.149406 -1.582817 -5.919418 3.626637 -16.889892 -14.533051 -2.910153 6.573547 0.000000 0.000000 0.000000 6.315054 -36.128190 0.167372 9.317871 3.128075 -2.370182 18.680520 6.342848 -3.712569 0.000000 0.000000 0.000000 0.000000 0.000000 0.000000 18.680509 6.342847 -3.712572 -27.933551 -0.273810 3.497553 -9.319825 12.564654 2.011974 0.000000 0.000000 0.000000 18.680509 6.342847 -3.712572 2.409795 -0.023701 -1.069143 0.000000 0.000000 0.000000 -26.943689 -8.028744 -65.406301 -3.859275 -39.704969 6.470783 0.000000 0.000000 0.000000 18.680509 6.342847 -3.712572 5.273183 11.729660 1.488837 0.000000 0.000000 0.000000 -17.310155 -10.627642 58.132123 1.378224 66.741193 -10.106025 0.000000 0.000000 0.000000 
